{
    "asset" : {
        "generator" : "Khronos glTF Blender I/O v0.9.36",
        "version" : "2.0"
    },
    "scene" : 0,
    "scenes" : [
        {
            "name" : "Scene",
            "nodes" : [
                0
            ]
        }
    ],
    "nodes" : [
        {
            "mesh" : 0,
            "name" : "Plane",
            "scale" : [
                6.674330711364746,
                6.674330711364746,
                6.674330711364746
            ],
            "translation" : [
                -0.09594454616308212,
                3.6234757900238037,
                0.911309003829956
            ]
        }
    ],
    "materials" : [
        {
            "doubleSided" : true,
            "emissiveFactor" : [
                1,
                1,
                1
            ],
            "emissiveTexture" : {
                "index" : 0,
                "texCoord" : 0
            },
            "name" : "Material.001",
            "pbrMetallicRoughness" : {
                "baseColorTexture" : {
                    "index" : 1,
                    "texCoord" : 0
                },
                "metallicFactor" : 0.6727272868156433,
                "roughnessFactor" : 0.7545453906059265
            }
        }
    ],
    "meshes" : [
        {
            "name" : "Plane",
            "primitives" : [
                {
                    "attributes" : {
                        "POSITION" : 0,
                        "TEXCOORD_0" : 1
                    },
                    "indices" : 2,
                    "material" : 0
                }
            ]
        }
    ],
    "textures" : [
        {
            "source" : 0
        },
        {
            "source" : 1
        }
    ],
    "images" : [
        {
            "bufferView" : 3,
            "mimeType" : "image/jpeg",
            "name" : "blanket-bake"
        },
        {
            "bufferView" : 4,
            "mimeType" : "image/jpeg",
            "name" : "blanket"
        }
    ],
    "accessors" : [
        {
            "bufferView" : 0,
            "componentType" : 5126,
            "count" : 2330,
            "max" : [
                0.9450827836990356,
                -0.4959745407104492,
                0.9536898136138916
            ],
            "min" : [
                -0.950535774230957,
                -0.5468078851699829,
                -0.9452313780784607
            ],
            "type" : "VEC3"
        },
        {
            "bufferView" : 1,
            "componentType" : 5126,
            "count" : 2330,
            "type" : "VEC2"
        },
        {
            "bufferView" : 2,
            "componentType" : 5123,
            "count" : 12618,
            "type" : "SCALAR"
        }
    ],
    "bufferViews" : [
        {
            "buffer" : 0,
            "byteLength" : 27960,
            "byteOffset" : 0
        },
        {
            "buffer" : 0,
            "byteLength" : 18640,
            "byteOffset" : 27960
        },
        {
            "buffer" : 0,
            "byteLength" : 25236,
            "byteOffset" : 46600
        },
        {
            "buffer" : 0,
            "byteLength" : 529801,
            "byteOffset" : 71836
        },
        {
            "buffer" : 0,
            "byteLength" : 635656,
            "byteOffset" : 601640
        }
    ],
    "buffers" : [
        {
            "byteLength" : 1237296,
            "uri" : "data:application/octet-stream;base64,"
        }
    ]
}
