{
    "asset" : {
        "generator" : "Khronos glTF Blender I/O v0.9.36",
        "version" : "2.0"
    },
    "scene" : 0,
    "scenes" : [
        {
            "name" : "Scene",
            "nodes" : [
                0
            ]
        }
    ],
    "nodes" : [
        {
            "mesh" : 0,
            "name" : "Plane",
            "scale" : [
                6.674330711364746,
                6.674330711364746,
                6.674330711364746
            ],
            "translation" : [
                0,
                3.6325697898864746,
                0
            ]
        }
    ],
    "materials" : [
        {
            "doubleSided" : true,
            "name" : "Material.001",
            "pbrMetallicRoughness" : {
                "baseColorTexture" : {
                    "index" : 0,
                    "texCoord" : 0
                },
                "metallicFactor" : 0,
                "roughnessFactor" : 0.7863636016845703
            }
        }
    ],
    "meshes" : [
        {
            "name" : "Plane",
            "primitives" : [
                {
                    "attributes" : {
                        "POSITION" : 0,
                        "NORMAL" : 1,
                        "TEXCOORD_0" : 2
                    },
                    "indices" : 3,
                    "material" : 0
                }
            ]
        }
    ],
    "textures" : [
        {
            "source" : 0
        }
    ],
    "images" : [
        {
            "bufferView" : 4,
            "mimeType" : "image/jpeg",
            "name" : "800px_COLOURBOX5819749"
        }
    ],
    "accessors" : [
        {
            "bufferView" : 0,
            "componentType" : 5126,
            "count" : 41229,
            "max" : [
                0.9449114203453064,
                -0.49360501766204834,
                0.9536458253860474
            ],
            "min" : [
                -0.9504762887954712,
                -0.5467043519020081,
                -0.9450958371162415
            ],
            "type" : "VEC3"
        },
        {
            "bufferView" : 1,
            "componentType" : 5126,
            "count" : 41229,
            "type" : "VEC3"
        },
        {
            "bufferView" : 2,
            "componentType" : 5126,
            "count" : 41229,
            "type" : "VEC2"
        },
        {
            "bufferView" : 3,
            "componentType" : 5123,
            "count" : 244824,
            "type" : "SCALAR"
        }
    ],
    "bufferViews" : [
        {
            "buffer" : 0,
            "byteLength" : 494748,
            "byteOffset" : 0
        },
        {
            "buffer" : 0,
            "byteLength" : 494748,
            "byteOffset" : 494748
        },
        {
            "buffer" : 0,
            "byteLength" : 329832,
            "byteOffset" : 989496
        },
        {
            "buffer" : 0,
            "byteLength" : 489648,
            "byteOffset" : 1319328
        },
        {
            "buffer" : 0,
            "byteLength" : 347904,
            "byteOffset" : 1808976
        }
    ],
    "buffers" : [
        {
            "byteLength" : 2156880,
            "uri" : "data:application/octet-stream;base64,"
        }
    ]
}
